<svg width="100" height="100" viewBox="0 0 100 100" fill="none" xmlns="http://www.w3.org/2000/svg">
<circle cx="50" cy="50" r="50" fill="#171717"/>
<path fill-rule="evenodd" clip-rule="evenodd" d="M26.2727 28.9091C26.2727 27.4651 27.4651 26.2727 28.9091 26.2727H55.2727C56.7167 26.2727 57.9091 27.4651 57.9091 28.9091C57.9091 30.3651 59.0894 31.5455 60.5455 31.5455C62.0015 31.5455 63.1818 30.3651 63.1818 28.9091C63.1818 24.5531 59.6288 21 55.2727 21H28.9091C24.5531 21 21 24.5531 21 28.9091V55.2727C21 59.6288 24.5531 63.1818 28.9091 63.1818C30.3651 63.1818 31.5455 62.0015 31.5455 60.5455C31.5455 59.0894 30.3651 57.9091 28.9091 57.9091C27.4651 57.9091 26.2727 56.7167 26.2727 55.2727V28.9091ZM44.7273 42.0909C43.2712 42.0909 42.0909 43.2713 42.0909 44.7273V71.091C42.0909 72.547 43.2712 73.7273 44.7273 73.7273H71.0909C72.5469 73.7273 73.7273 72.547 73.7273 71.091V44.7273C73.7273 43.2713 72.5469 42.0909 71.0909 42.0909H44.7273ZM36.8182 44.7273C36.8182 40.3592 40.3592 36.8182 44.7273 36.8182H71.0909C75.459 36.8182 79 40.3592 79 44.7273V71.091C79 75.459 75.459 79 71.0909 79H44.7273C40.3592 79 36.8182 75.459 36.8182 71.091V44.7273ZM67.6824 50.7722C68.7119 51.8017 68.7119 53.471 67.6824 54.5006L57.1369 65.046C56.1073 66.0756 54.4381 66.0756 53.4085 65.046L48.1358 59.7733C47.1062 58.7437 47.1062 57.0745 48.1358 56.0449C49.1654 55.0153 50.8346 55.0153 51.8642 56.0449L55.2727 59.4534L63.954 50.7722C64.9835 49.7426 66.6528 49.7426 67.6824 50.7722Z" fill="#F5F5F5"/>
</svg>
