<svg width="200" height="200" viewBox="0 0 200 200" fill="none" xmlns="http://www.w3.org/2000/svg">
<rect width="200" height="200" rx="100" fill="#FAFAFA"/>
<path fill-rule="evenodd" clip-rule="evenodd" d="M21 100C21 56.3695 56.3695 21 100 21C130.687 21 157.288 38.4969 170.369 64.0586C166.492 62.7244 162.331 62 158 62C154.388 62 150.893 62.504 147.583 63.4456C136.614 49.188 119.38 40 100 40C66.8629 40 40 66.8629 40 100C40 133.137 66.8629 160 100 160C119.38 160 136.614 150.812 147.583 136.554C150.893 137.496 154.388 138 158 138C162.331 138 166.492 137.276 170.369 135.941C157.288 161.503 130.687 179 100 179C56.3695 179 21 143.63 21 100Z" fill="#171717"/>
<path d="M131 97.9461V102.054C131 103.188 131.353 104.156 132.06 104.958C132.766 105.761 133.685 106.162 134.815 106.162H157.772L148.217 115.597C147.391 116.367 146.978 117.33 146.978 118.485C146.978 119.641 147.391 120.603 148.217 121.374L150.663 123.813C151.467 124.604 152.446 125 153.598 125C154.728 125 155.717 124.604 156.565 123.813L177.793 102.888C178.598 102.097 179 101.134 179 100C179 98.8875 178.598 97.914 177.793 97.0796L156.565 76.2195C155.739 75.4065 154.75 75 153.598 75C152.467 75 151.489 75.4065 150.663 76.2195L148.217 78.5944C147.391 79.4074 146.978 80.3808 146.978 81.5148C146.978 82.6487 147.391 83.6222 148.217 84.4352L157.772 93.8383H134.815C133.685 93.8383 132.766 94.2394 132.06 95.0417C131.353 95.844 131 96.8122 131 97.9461Z" fill="black"/>
<rect x="75" y="75" width="49" height="49" rx="24.5" fill="#171717"/>
<path d="M117 101.5L39 140.904L39 62.0958L117 101.5Z" fill="#171717"/>
<path d="M85.4899 155.807C85.026 157.591 83.2002 158.67 81.4442 158.109C74.8896 156.016 68.7284 152.827 63.2259 148.669C57.7234 144.511 52.9723 139.455 49.1685 133.722C48.1495 132.186 48.6889 130.135 50.2784 129.201V129.201C51.8679 128.268 53.9047 128.806 54.934 130.335C58.287 135.316 62.4472 139.714 67.2502 143.343C72.0532 146.972 77.4197 149.773 83.1273 151.638C84.8795 152.21 85.9537 154.023 85.4899 155.807V155.807Z" fill="#737373"/>
<path d="M48.0213 72.7671C46.8866 72.1726 46.4448 70.7683 47.082 69.657C50.8349 63.1118 55.7698 57.3194 61.6356 52.5744C62.6315 51.7687 64.0882 51.9818 64.8554 53.0076V53.0076C65.6226 54.0335 65.4096 55.4833 64.4162 56.2921C59.1021 60.6184 54.6214 65.8778 51.1943 71.8117C50.5536 72.921 49.156 73.3616 48.0213 72.7671V72.7671Z" fill="#737373"/>
<path fill-rule="evenodd" clip-rule="evenodd" d="M108.135 133.974C111.296 133.219 112.684 129.709 111.41 126.719C110.522 124.634 108.567 123.366 106.376 122.955C104.194 123.591 101.887 123.933 99.5 123.933C85.969 123.933 75 112.964 75 99.4326C75 85.9016 85.969 74.9326 99.5 74.9326C101.186 74.9326 102.832 75.1028 104.422 75.427C105.764 74.5764 106.796 73.3205 107.205 71.7222C108.009 68.5734 106.103 65.3157 102.864 65.0497C99.3085 64.7578 95.7176 65.0103 92.2171 65.8087C86.7968 67.0449 81.749 69.5546 77.4916 73.1299C73.2342 76.7052 69.8898 81.2432 67.7353 86.3682C65.5807 91.4932 64.678 97.0578 65.1019 102.601C65.5258 108.144 67.2641 113.507 70.1729 118.245C73.0817 122.983 77.0772 126.959 81.8287 129.846C86.5802 132.732 91.951 134.445 97.4962 134.843C101.077 135.1 104.665 134.803 108.135 133.974Z" fill="#737373"/>
<circle cx="59.5" cy="120.5" r="5.5" fill="#F5F5F5"/>
<circle cx="53.5" cy="106.5" r="4.5" fill="#F5F5F5"/>
<circle cx="54.5" cy="92.5" r="4.5" fill="#F5F5F5"/>
<circle cx="44.5" cy="115.5" r="4.5" fill="#F5F5F5"/>
<circle cx="42" cy="128" r="3" fill="#F5F5F5"/>
<circle cx="34" cy="112" r="3" fill="#F5F5F5"/>
<circle cx="33" cy="91" r="3" fill="#F5F5F5"/>
<circle cx="44.5" cy="82.5" r="4.5" fill="#F5F5F5"/>
<circle cx="41.5" cy="98.5" r="5.5" fill="#F5F5F5"/>
<circle cx="83.5" cy="148.5" r="5.5" fill="#171717"/>
<circle cx="81" cy="60" r="6" fill="#171717"/>
<circle cx="109.5" cy="47.5" r="3.5" fill="#171717"/>
<circle cx="93" cy="48" r="5" fill="#171717"/>
<circle cx="95.5" cy="140.5" r="4.5" fill="#171717"/>
<circle cx="97.5" cy="151.5" r="3.5" fill="#171717"/>
<circle cx="78" cy="136" r="4" fill="#737373"/>
<circle cx="100.5" cy="58.5" r="3.5" fill="#737373"/>
<circle cx="68.5" cy="80.5" r="14.5" fill="#737373"/>
<circle cx="68.5" cy="80.5" r="9.5" fill="#18181B"/>
<circle cx="81.5" cy="47.5" r="3.5" fill="#737373"/>
<circle cx="68.5" cy="131.5" r="2.5" fill="#737373"/>
</svg>
